<svg viewBox="0 0 32 32" width="32" height="32" fill="none" xmlns="http://www.w3.org/2000/svg">
<circle cx="16" cy="16" r="16" fill="#FFE600"/>
<path d="M12.6 10.9a1.78 1.78 0 100-3.56 1.78 1.78 0 000 3.56zm4.43 8.66c-1.19.1-2.09-.5-2.87-1.31-.62-.64-1.22-1.16-1.99-1.16-.44 0-.81.14-1.07.36-.37.31-.61.85-.38 1.31.22.45.85.56 1.3.56h.44c.14.01.26.06.36.14.13.12.15.3.07.44-.23.41-.84.73-1.41.73-.72 0-1.53-.57-1.53-1.82 0-.87.38-1.69 1.06-2.14.49-.33 1.09-.5 1.73-.5 1.24 0 2.23.61 3.13 1.32.82.65 1.6 1.33 2.5 1.33.58 0 .98-.13 1.16-.26.02-.02.05-.04.09-.06.13-.07.3-.01.37.12.08.16.13.34.13.55 0 .81-.77 1.35-2.03 1.45zm2.1-4.94c-.97 0-1.78-.65-1.78-1.49 0-.83.81-1.49 1.78-1.49.97 0 1.78.66 1.78 1.49 0 .84-.81 1.49-1.78 1.49z" fill="#222"/>
</svg> 
