<svg viewBox="0 0 32 32" width="32" height="32" fill="none" xmlns="http://www.w3.org/2000/svg">
<circle cx="16" cy="16" r="16" fill="#E4405F"/>
<path d="M16 10.89a5.11 5.11 0 100 10.22 5.11 5.11 0 000-10.22zm0 8.44a3.33 3.33 0 110-6.66 3.33 3.33 0 010 6.66zm6.37-8.5a1.19 1.19 0 01-2.38 0 1.19 1.19 0 012.38 0zm3.41 1.21c-.08-1.57-.46-2.97-1.69-4.2C22.97 6.46 21.57 6.08 20 6c-1.6-.09-6.4-.09-8 0-1.57.08-2.97.46-4.2 1.69C6.46 9.03 6.08 10.43 6 12c-.09 1.6-.09 6.4 0 8  .08 1.57.46 2.97 1.69 4.2C9.03 25.54 10.43 25.92 12 26c1.6.09 6.4.09 8 0 1.57-.08 2.97-.46 4.2-1.69 1.23-1.23 1.61-2.63 1.69-4.2.09-1.6.09-6.4 0-8zm-2.13 9.65a3.63 3.63 0 01-2.05 2.05c-1.42.56-4.78.43-6.6.43s-5.18.12-6.6-.43a3.63 3.63 0 01-2.05-2.05c-.56-1.42-.43-4.78-.43-6.6s-.12-5.18.43-6.6a3.63 3.63 0 012.05-2.05c1.42-.56 4.78-.43 6.6-.43s5.18-.12 6.6.43a3.63 3.63 0 012.05 2.05c.56 1.42.43 4.78.43 6.6s.12 5.18-.43 6.6z" fill="#fff"/>
</svg> 
