<svg viewBox="0 0 32 32" width="32" height="32" fill="none" xmlns="http://www.w3.org/2000/svg">
<circle cx="16" cy="16" r="16" fill="#25D366"/>
<path d="M16 6C10.49 6 6 10.49 6 16c0 2.11.67 4.07 1.81 5.68L6 26l4.42-1.74C12.03 25.33 13.96 26 16 26c5.51 0 10-4.49 10-10s-4.49-10-10-10zm0 18c-1.82 0-3.5-.53-4.92-1.42l-.35-.22-2.62 1.04.5-2.73-.18-.29A7.96 7.96 0 018 16c0-4.41 3.59-8 8-8s8 3.59 8 8-3.59 8-8 8zm4.58-6.26c-.25-.13-1.45-.72-1.67-.8-.22-.09-.38-.13-.54.13-.16.25-.62.8-.76.96-.13.16-.28.19-.53.06-.25-.13-1.04-.38-1.98-1.23-.74-.66-1.24-1.48-1.39-1.73-.15-.25-.02-.39.12-.51.13-.13.25-.28.38-.42.13-.16.18-.25.27-.42.09-.16.04-.32-.02-.45-.06-.13-.54-1.3-.74-1.78-.2-.48-.4-.41-.54-.41-.13 0-.29-.01-.44-.01-.16 0-.41.06-.62.28-.21.22-.83.81-.83 1.98 0 1.17.85 2.3.97 2.46.13.16 1.67 2.56 4.04 3.48.56.19.99.3 1.33.39.56.14 1.08.12 1.49.08.46-.05 1.45-.6 1.65-1.18.2-.58.2-1.08.14-1.18-.06-.1-.23-.16-.48-.29z" fill="#fff"/>
</svg> 
